# xmcd
#
# Track frame offsets: 
#        150
#        19524
#        36593
#        53487
#        69193
#        91883
#        110650
#        127206
#        144327
#
# Disc length: 2175 seconds
#
# Revision: 0
# Processed by: cddbd v1.5.2PL0 Copyright (c) Steve Scherf et al.
# Submitted via: ExactAudioCopyFreeDBPlugin 1.0
#
DISCID=76087d09
DTITLE=Molly Jewell - Molly Jewell
DYEAR=2012
DGENRE=Country
TTITLE0=Everyone Just Wants Someone
TTITLE1=The Man Who Lives Upstairs
TTITLE2=It's Not That Bad
TTITLE3=Poor Happy People
TTITLE4=Send Help
TTITLE5=And Then There's You
TTITLE6=When I Was Yours
TTITLE7=Yellow
TTITLE8=You
EXTD=
EXTT0=
EXTT1=
EXTT2=
EXTT3=
EXTT4=
EXTT5=
EXTT6=
EXTT7=
EXTT8=
PLAYORDER=
